<svg width="106" height="104" viewBox="0 0 106 104" xmlns="http://www.w3.org/2000/svg" xmlns:xlink="http://www.w3.org/1999/xlink"><title>Classic</title><defs><path d="M95.542 75.438a2.98 2.98 0 0 0 .396-.848 47.408 47.408 0 0 0 1.515-3.743l.7.15c1.686.35 3.323-.697 3.676-2.332l4.34-20.06a3.039 3.039 0 0 0-2.37-3.641l-.74-.154 1.44-6.026a3.039 3.039 0 0 0-2.37-3.64l-6.936-1.439c-6.987-13.977-20.66-24.157-36.931-26.53l-1.256-3.877C56.2.813 53.482-.567 50.948.222L29.571 6.884c-2.534.789-3.942 3.456-3.137 5.94l.063.193C18.343 17.603 11.655 24.411 7.291 32.6l-3.908 1.903c-1.97.96-2.772 3.302-1.795 5.233l1.357 2.679-1.533 4.344c-.11.273-.492 1.301-.415 2.224l.005.061a5.621 5.621 0 0 0 .172 1.23c.046.223.1.434.165.607.109.295.316.663.483.94a48.067 48.067 0 0 0-.1 3.108c0 26.665 22.043 48.281 49.235 48.281 19.713 0 36.721-11.362 44.585-27.772z" id="a"/><mask id="b" x="0" y="0" width="105.253" height="103.21" fill="#fff"><use xlink:href="#a"/></mask><path d="M.297 45.41c0 24.771 20.528 44.852 45.85 44.852 25.322 0 45.85-20.08 45.85-44.852 0-24.77-20.528-44.851-45.85-44.851C20.825.559.297 20.64.297 45.41z" id="c"/><path d="M50.255 98.3c25.322 0 40.099-19.277 43.385-29.581 0 0 11.53-6.83 12.351-12.457-1.742-5.652 2.836-12.61-1.944-19.671C92.066 18.894 64.697.559 50.255.559L28.071 8.596C8.048 8.596.785 21.956.341 39.458c-.117 4.632 4.064 8.806 4.064 13.99 0 24.77 20.528 44.852 45.85 44.852z" id="e"/></defs><g transform="translate(-1)" fill="none" fill-rule="evenodd"><use stroke="#FFF" mask="url(#b)" stroke-width="2" fill="#FFF" xlink:href="#a"/><g transform="translate(5.203 9.607)"><mask id="d" fill="#fff"><use xlink:href="#c"/></mask><path fill="#66BF39" mask="url(#d)" d="M101.298 95.231H-7.69v-98.53h108.988z"/><g mask="url(#d)" fill-opacity=".15" fill="#FFF"><path d="M-7.36-7.191l54.291 53.11L7.187-21.422zm-19.873 72.849L46.931 46.22h-79.489z"/><path d="M27.134 118.471l19.928-72.515v-.037L7.285 113.26z"/><path d="M86.676 113.26l14.548-14.232-54.292-53.11z"/><path d="M121.096 26.78L46.932 46.218h79.489zM66.86-26.633L47.062 45.882v.037l39.713-67.34zm-96.71 52.427l76.781 20.125-66.493-37.555zm20.574 75.108L46.931 45.92l-66.494 37.554z"/><path d="M67.505 121L47.062 45.957v75.045z"/><path d="M46.931 45.919l66.495 37.554 10.286-17.43zm56.208-54.983L46.93 45.919l66.495-37.554z"/><path d="M26.358-29.068l20.705 74.95v-74.95z"/></g></g><g transform="translate(1.095 1.57)"><mask id="f" fill="#fff"><use xlink:href="#e"/></mask><g mask="url(#f)"><path fill="#3D2B1A" d="M68.656 44.484l2.725 7.904 4.107-7.596zm9.073 12.766l-18.668 50.12 21.606 5.653 8.648-48.703zM92.67 49.7l-1.013 4.966-1.013 4.967L89.63 64.6l2.488.485 2.488.486 2.488.485c.687.134 1.47-.87 1.75-2.24.278-1.364-.046-2.577-.724-2.724.684.118 1.46-.881 1.738-2.244.277-1.363-.047-2.576-.725-2.723.683.119 1.46-.88 1.737-2.243.278-1.365-.047-2.58-.727-2.725.685.122 1.462-.878 1.74-2.242.28-1.372-.05-2.592-.737-2.727l-2.488-.485-2.488-.486-2.488-.485-1.013 4.967z"/><path d="M69.13 67.64c-1.118-.232-1.838-1.315-1.602-2.408l6.95-32.151c.235-1.093 1.343-1.798 2.46-1.568l21.523 4.452c1.118.232 1.838 1.314 1.602 2.408l-6.95 32.152c-.236 1.092-1.343 1.797-2.46 1.566L69.13 67.64z" fill="#000"/><path d="M79.52 67.938a.77.77 0 0 1 .913-.581.755.755 0 0 1 .595.893.77.77 0 0 1-.914.582.755.755 0 0 1-.594-.894z" fill="#333"/><path fill="#FFF" d="M98.708 38.946L75.477 34.14l-6.532 30.222 23.23 4.806z"/><path fill="#CBCACA" d="M75.056 36.087l23.231 4.805-.019.089-23.23-4.805zm-5.67 26.233l23.231 4.804-.02.098-23.232-4.806z"/><path d="M91.666 68.708l-2.756-.57c-.061-.013-.1-.082-.085-.151l.232-1.071c.014-.07.078-.117.14-.104l2.756.57c.061.012.1.081.085.151l-.231 1.07c-.018.072-.08.117-.141.105" fill="#333"/><path d="M94.671 53.631l-10.249-2.12a.357.357 0 0 1-.28-.421l2.485-11.499a.365.365 0 0 1 .43-.274l10.25 2.12c.196.04.321.23.28.422l-2.485 11.498a.364.364 0 0 1-.43.274" fill="#2D4F9F"/><path d="M94.708 53.462l-10.25-2.12a.357.357 0 0 1-.28-.421l2.485-11.499a.365.365 0 0 1 .43-.274l10.25 2.12c.196.04.322.23.281.422l-2.485 11.498a.364.364 0 0 1-.431.274" fill="#3369B1"/><path fill="#FFF" d="M89.523 46.02l1.67-1.062 1.086 1.632-1.67 1.063z"/><path d="M91.912 66.397l-10.249-2.12a.357.357 0 0 1-.281-.421l2.485-11.499a.365.365 0 0 1 .431-.274l10.25 2.12c.195.04.321.23.28.421l-2.485 11.499a.364.364 0 0 1-.43.274" fill="#186D38"/><path d="M81.663 64.052a.35.35 0 0 1-.281-.413l2.485-11.287a.365.365 0 0 1 .431-.27l10.25 2.082a.35.35 0 0 1 .28.414l-2.485 11.286a.364.364 0 0 1-.43.27l-10.25-2.082z" fill="#2C8F44"/><path fill="#FFF" d="M87.268 57.758l2.216.458-.468 2.168-2.216-.458z"/><path d="M80.582 64.053l-10.25-2.12a.357.357 0 0 1-.28-.421l2.485-11.498a.365.365 0 0 1 .43-.274l10.25 2.12c.196.04.322.23.28.421l-2.485 11.498a.364.364 0 0 1-.43.274" fill="#A97B2C"/><path d="M80.618 63.884l-10.249-2.12a.357.357 0 0 1-.28-.421l2.485-11.498a.365.365 0 0 1 .43-.275l10.25 2.12c.196.04.321.23.28.422L81.05 63.61a.364.364 0 0 1-.43.274" fill="#D39C29"/><path d="M83.341 51.288l-10.249-2.12a.357.357 0 0 1-.281-.422l2.485-11.498a.365.365 0 0 1 .431-.274l10.25 2.12c.195.04.321.23.28.421l-2.485 11.499a.364.364 0 0 1-.43.274" fill="#C4212C"/><path d="M83.378 51.119l-10.25-2.12a.357.357 0 0 1-.28-.422l2.485-11.498a.365.365 0 0 1 .43-.274l10.25 2.12c.196.04.322.23.28.421l-2.485 11.499a.364.364 0 0 1-.43.274" fill="#DF1D3E"/><path fill="#FFF" d="M80.514 45.368l-2.388-.494 1.7-2.071"/><path d="M75.477 34.14l-6.533 30.224 23.231 4.805 6.533-30.224-23.23-4.805zm.12.18l22.929 4.742-6.47 29.927-22.929-4.742 6.47-29.927z" fill="#000"/><path d="M73.189 48.232l5.396-3.523a3.131 3.131 0 0 0 .898-4.4c-.995-1.458-3.01-1.851-4.499-.879l-1.795 8.802z" fill-opacity=".15" fill="#000"/><path d="M78.874 39.866c-.995-1.458-3.01-1.85-4.499-.877l-4.273 2.83v.001c-.343.236-.646.54-.883.91-.953 1.482-.497 3.439 1.018 4.37a3.292 3.292 0 0 0 3.456-.017l.01.014 4.273-2.83a3.131 3.131 0 0 0 .898-4.4" fill="#3D2B1A"/><path d="M77.072 55.522c.68.141 1.115.795.971 1.46-.144.666-.812 1.09-1.492.95a1.232 1.232 0 0 1-.971-1.46c.144-.665.812-1.09 1.492-.95" fill="#FFF"/><path fill="#F7CD9B" d="M28.838 31.256l8.604 8.09-1.176-11.502zm9.463 2.624l-1.497 66.97 27.378-1.267-9.663-61.667z"/><path d="M68.916 51.082a2.256 2.256 0 0 1-1.563 1.783l-21.048 6.542c-1.197.373-2.488-.282-2.869-1.453L28.333 11.151a2.172 2.172 0 0 1-.107-.675 2.245 2.245 0 0 1 1.584-2.32l21.047-6.542c1.198-.372 2.49.281 2.87 1.453L68.9 49.783c.143.437.139.888.015 1.3z" fill="#000"/><path d="M55.451 51.424c1.003-.312 2.072.23 2.391 1.211.319.98-.236 2.027-1.238 2.339-1.002.31-2.072-.23-2.391-1.211-.318-.98.236-2.027 1.238-2.34M46.642 5.855c.3-.093.622.07.717.364a.556.556 0 0 1-.371.701.574.574 0 0 1-.717-.363.556.556 0 0 1 .37-.702m-2.559 1.961l-5.08 1.579a.566.566 0 0 1-.707-.358.55.55 0 0 1 .365-.693l5.081-1.579a.566.566 0 0 1 .708.359c.094.29-.07.6-.367.692" fill="#333"/><path fill="#FFF" d="M53.676 6.6L30.45 13.82l13.1 40.326 23.224-7.22z"/><path d="M53.18 46.51l-10.088 3.136a.221.221 0 0 1-.273-.138l-4.927-15.169a.214.214 0 0 1 .14-.267l10.089-3.136a.221.221 0 0 1 .273.138l4.927 15.169a.214.214 0 0 1-.141.267" fill="#A97B2C"/><path d="M53.11 46.297l-10.087 3.136a.221.221 0 0 1-.273-.138l-4.86-14.956a.214.214 0 0 1 .142-.267l10.088-3.136a.22.22 0 0 1 .273.138l4.858 14.956a.214.214 0 0 1-.141.267" fill="#D39C29"/><path d="M45.01 38.454c.988-.307 2.043.227 2.357 1.194.314.966-.233 2-1.22 2.306-.989.307-2.044-.227-2.358-1.194-.314-.966.232-1.999 1.22-2.306" fill="#FFF"/><path d="M64.455 43.005L54.367 46.14a.221.221 0 0 1-.273-.138l-4.928-15.168a.214.214 0 0 1 .142-.267l10.088-3.136a.221.221 0 0 1 .273.138l4.927 15.168a.216.216 0 0 1-.141.267" fill="#186D38"/><path d="M64.385 42.792l-10.088 3.136a.221.221 0 0 1-.272-.138l-4.859-14.955a.214.214 0 0 1 .142-.267l10.088-3.136a.22.22 0 0 1 .272.138l4.859 14.955a.217.217 0 0 1-.142.267" fill="#2C8F44"/><path d="M59.188 26.793L49.1 29.929a.221.221 0 0 1-.273-.138L43.9 14.622a.214.214 0 0 1 .141-.266l10.088-3.137a.221.221 0 0 1 .273.139l4.928 15.168a.214.214 0 0 1-.142.267" fill="#2D4F9F"/><path d="M59.12 26.58l-10.09 3.136a.221.221 0 0 1-.273-.138L43.9 14.622a.214.214 0 0 1 .141-.266l10.088-3.137a.22.22 0 0 1 .273.139l4.858 14.955a.214.214 0 0 1-.14.267" fill="#3369B1"/><path d="M47.913 30.297l-10.088 3.137a.221.221 0 0 1-.272-.139l-4.928-15.168a.214.214 0 0 1 .142-.267l10.088-3.136a.221.221 0 0 1 .272.138l4.928 15.169a.212.212 0 0 1-.142.266" fill="#C4212C"/><path d="M47.844 30.084l-10.088 3.137a.221.221 0 0 1-.273-.139l-4.858-14.955a.214.214 0 0 1 .141-.267l10.088-3.136a.22.22 0 0 1 .273.138l4.859 14.956a.211.211 0 0 1-.142.266" fill="#DF1D3E"/><path fill="#FFF" d="M54.724 35.606l3.22-1 1.021 3.149-3.218 1z"/><path d="M58.752 37.304c-.804.221-1.846-.89-2.332-2.493-.486-1.602-.232-3.09.565-3.334-.804.22-1.845-.891-2.331-2.493-.486-1.602-.232-3.09.566-3.334-.805.221-1.846-.89-2.332-2.493-.488-1.61-.23-3.103.576-3.337l2.367-.687 2.011-.583 2.919-.847c.806-.233 1.854.881 2.342 2.49.486 1.603.233 3.091-.566 3.335.805-.222 1.847.89 2.333 2.493.485 1.6.232 3.087-.564 3.333.804-.219 1.844.893 2.33 2.494.486 1.601.232 3.09-.565 3.333.804-.22 1.845.892 2.331 2.494.488 1.609.23 3.103-.576 3.337l-2.076.602-2.303.668-2.918.846c-.806.234-1.854-.88-2.343-2.49-.486-1.602-.232-3.09.566-3.334zm1.871-.542l.306-.089-.09.026-.216.063zm-.677-12.483l.72-.209-.506.147-.214.062zm-2.135.62l-.213.061-.507.147.72-.209zm1.338 5.95l.014-.003-.005.001-.01.003zm4.749 4.963l.01-.003-.014.004.004-.001z" fill="#F7CD9B"/><path fill="#FFF" d="M42.587 25.118l-3.469 1.078.648-3.91m9.813-1.194l1.365-2.58 2.638 1.335-1.366 2.58z"/><path fill="#CBCACA" d="M31.56 17.234l23.225-7.219.065.203-23.224 7.219zm10.833 33.422l23.224-7.22.066.203-23.224 7.22z"/><path d="M65.687 46.612l-4.59 1.427c-.102.032-.218-.034-.254-.144l-.55-1.693c-.035-.11.02-.23.123-.26l4.59-1.428c.102-.032.217.034.254.144l.55 1.693c.033.115-.02.23-.123.261" fill="#333"/><path d="M34.306 31.38l3.713-6.694c1.025-1.849.324-4.16-1.566-5.163-1.889-1.002-4.252-.318-5.277 1.531l3.13 10.326z" fill="#000"/><path d="M35.554 19.387c-1.89-1.003-4.253-.318-5.278 1.531l-2.917 5.343.003.001a3.727 3.727 0 0 0-.419 1.45c-.163 2.095 1.44 3.922 3.581 4.081a3.9 3.9 0 0 0 3.66-1.91l.018.01 2.917-5.344c1.025-1.848.325-4.16-1.565-5.162" fill="#F7CD9B"/><path d="M36.802 53.827l1.142-.534c.63-.295.643-1.555.028-2.814-.61-1.25-1.61-2.03-2.242-1.753.617-.307.626-1.558.015-2.807-.61-1.251-1.611-2.031-2.243-1.753.618-.306.626-1.557.015-2.807-.61-1.25-1.61-2.03-2.242-1.753.617-.307.626-1.558.015-2.808-.615-1.259-1.624-2.041-2.256-1.746l-2.284 1.067-.347.163-.795.371-2.284 1.068c-.63.294-.643 1.555-.028 2.813.61 1.252 1.611 2.032 2.243 1.753-.618.305-.627 1.557-.016 2.808.61 1.25 1.609 2.029 2.24 1.753-.615.308-.623 1.558-.012 2.807.61 1.25 1.61 2.03 2.241 1.752-.616.307-.625 1.558-.014 2.808.615 1.26 1.624 2.041 2.255 1.746l2.285-1.067 2.284-1.067zM5.437 50.04l7.741 5.34-2.094-9.09zm8.683 2.467l4.759 50.73 22.314-4.533-13.216-44.952z" fill="#C6A07A"/><path fill="#C6A07A" d="M13.845 42.151l-4.392 1.281 8.91 18.241 4.391-1.281 10.279-4.804-8.91-18.24z"/><path d="M21.53 68.932l16.635-8.082a1.41 1.41 0 0 0 .656-1.908L22.96 27.705a1.47 1.47 0 0 0-1.95-.641L4.376 35.145a1.41 1.41 0 0 0-.656 1.908L19.58 68.29a1.47 1.47 0 0 0 1.95.642" fill="#747475"/><path d="M33.944 59.967c.33.65 1.136.915 1.8.592a1.3 1.3 0 0 0 .605-1.76 1.357 1.357 0 0 0-1.8-.593 1.301 1.301 0 0 0-.605 1.761M5.654 36.138a.408.408 0 0 0 .54.178.39.39 0 0 0 .182-.528.406.406 0 0 0-.54-.178.39.39 0 0 0-.182.528" fill="#333"/><path fill="#FFF" d="M5.982 37.173l15.655-7.606L35.44 56.75l-15.655 7.607z"/><path fill="#FFF" d="M21.637 29.567L5.982 37.173l13.802 27.183 15.655-7.606z"/><path d="M25.754 57.912l-6.8 3.304a.159.159 0 0 1-.209-.07l-5.191-10.224a.152.152 0 0 1 .07-.204l6.8-3.304a.16.16 0 0 1 .21.068l5.19 10.225a.152.152 0 0 1-.07.205" fill="#A97B2C"/><path d="M25.682 57.768l-6.801 3.304a.16.16 0 0 1-.209-.069l-5.118-10.081a.152.152 0 0 1 .07-.204l6.8-3.304a.16.16 0 0 1 .21.068l5.117 10.082a.152.152 0 0 1-.07.204" fill="#D39C29"/><path d="M19.06 53.076a1.36 1.36 0 0 1 1.806.594c.33.651.059 1.442-.607 1.766a1.362 1.362 0 0 1-1.806-.594 1.305 1.305 0 0 1 .608-1.766" fill="#FFF"/><path d="M33.355 54.219l-6.801 3.304a.159.159 0 0 1-.209-.069l-5.19-10.224a.152.152 0 0 1 .07-.205l6.8-3.304a.159.159 0 0 1 .208.07l5.191 10.224a.154.154 0 0 1-.07.204" fill="#186D38"/><path d="M33.282 54.075l-6.8 3.305a.159.159 0 0 1-.21-.07l-5.118-10.08a.152.152 0 0 1 .07-.205l6.801-3.303a.16.16 0 0 1 .209.068l5.118 10.081a.154.154 0 0 1-.07.204" fill="#2C8F44"/><path d="M27.806 43.29l-6.8 3.305a.16.16 0 0 1-.21-.07l-5.19-10.224a.152.152 0 0 1 .07-.204l6.8-3.304a.16.16 0 0 1 .209.068l5.191 10.225a.152.152 0 0 1-.07.205" fill="#2D4F9F"/><path d="M27.733 43.147l-6.8 3.304a.159.159 0 0 1-.21-.069l-5.117-10.081a.152.152 0 0 1 .07-.204l6.8-3.304a.16.16 0 0 1 .21.069l5.117 10.08a.152.152 0 0 1-.07.205" fill="#3369B1"/><path d="M20.206 46.983l-6.8 3.304a.159.159 0 0 1-.21-.069l-5.19-10.224a.152.152 0 0 1 .07-.204l6.8-3.305a.16.16 0 0 1 .209.069l5.19 10.225a.15.15 0 0 1-.07.204" fill="#C4212C"/><path d="M20.133 46.84l-6.8 3.304a.159.159 0 0 1-.21-.07l-5.117-10.08a.152.152 0 0 1 .07-.205l6.8-3.303a.16.16 0 0 1 .209.068l5.118 10.081a.15.15 0 0 1-.07.205" fill="#DF1D3E"/><path fill="#FFF" d="M25.628 50.017l2.17-1.055 1.077 2.123-2.169 1.054zm-9.778-6.135l-2.338 1.136.021-2.842m6.823-1.897l.678-1.976 2.02.665-.679 1.975z"/><path fill="#CBCACA" d="M7.15 39.475l15.656-7.606.07.136L7.22 39.612zm11.422 22.532L34.227 54.4l.07.136-15.656 7.606z"/><path d="M34.632 56.644l-3.093 1.503c-.07.034-.159 0-.197-.075l-.579-1.14c-.038-.075-.011-.166.058-.199l3.093-1.503c.069-.033.159 0 .196.074l.58 1.142c.037.078.011.164-.058.198" fill="#333"/><path d="M9.944 49.444l2.157-5.97c.596-1.65-.288-3.459-1.974-4.041-1.685-.582-3.534.282-4.13 1.93l3.947 8.081z" fill="#000"/><path d="M9.37 39.436c-1.684-.583-3.534.281-4.13 1.93l-1.683 4.761h.002a3.08 3.08 0 0 0-.15 1.244c.145 1.741 1.706 3.038 3.485 2.895a3.217 3.217 0 0 0 2.751-2.035l.016.006 1.683-4.76c.596-1.65-.288-3.458-1.973-4.041" fill="#C6A07A"/></g></g></g></svg>