<svg width="96" height="105" viewBox="0 0 96 105" xmlns="http://www.w3.org/2000/svg" xmlns:xlink="http://www.w3.org/1999/xlink"><title>Team</title><defs><path d="M10.041 17.316C3.938 24.914.29 34.543.29 45.017c0 24.557 20.05 44.463 44.78 44.463 24.731 0 44.78-19.906 44.78-44.463 0-14.013-6.528-26.513-16.732-34.663-7.676-6.13-17.43-9.8-28.048-9.8a44.814 44.814 0 0 0-35.03 16.762z" id="a"/><path d="M50.748 10.47l-2.686-8.393C47.578.565 45.937-.28 44.415.2L17.658 8.643c-1.522.48-2.372 2.11-1.888 3.621l2.21 6.907a44.897 44.897 0 0 0-7.939 7.706C3.938 34.475.29 44.104.29 54.58c0 24.556 20.05 44.463 44.781 44.463 24.731 0 44.78-19.907 44.78-44.463 0-14.014-6.528-26.514-16.732-34.663a44.742 44.742 0 0 0-22.371-9.447z" id="c"/></defs><g fill="none" fill-rule="evenodd"><path d="M41.986 12.593a44.904 44.904 0 0 0-10.729 2.704C22.173 18.826 14.2 25.34 8.962 34.412c-12.278 21.266-4.869 48.53 16.55 60.896 21.418 12.367 48.735 5.15 61.013-16.116 7.007-12.136 7.602-26.226 2.84-38.385a44.735 44.735 0 0 0-14.65-19.367l1.87-8.61c.336-1.552-.663-3.103-2.221-3.449L46.97 3.314c-1.558-.345-3.109.641-3.446 2.192l-1.539 7.087z" stroke="#FFF" stroke-width="6" stroke-linejoin="round" fill="#FFF"/><g transform="rotate(30 24.417 55.896)"><mask id="b" fill="#fff"><use xlink:href="#a"/></mask><path fill="#45A3E6" mask="url(#b)" d="M98.935 94.406H-7.51V-3.27H98.935z"/><g mask="url(#b)" fill-opacity=".15" fill="#FFF"><path d="M-7.189-7.129l53.026 52.65L7.02-21.237zM-26.598 65.09l72.435-19.271H-31.8z"/><path d="M26.501 117.445l19.464-71.887v-.036l-38.85 66.756z"/><path d="M84.655 112.279L98.863 98.17 45.837 45.52z"/><path d="M118.272 26.547L45.837 45.818h77.636zM65.3-26.402L45.965 45.484v.037L84.75-21.236zM-29.153 25.57l74.99 19.95-64.943-37.228zm20.093 74.458l54.897-54.507-64.944 37.23z"/><path d="M65.93 119.952L45.965 45.558v74.394z"/><path d="M45.837 45.521l64.943 37.23 10.047-17.28zm54.896-54.507L45.837 45.521 110.78 8.292z"/><path d="M25.743-28.816l20.222 74.3v-74.3z"/></g></g><g transform="rotate(30 42.258 60.677)"><mask id="d" fill="#fff"><use xlink:href="#c"/></mask><g mask="url(#d)"><path d="M30.703 37.508l-.89.358-2.222.895c-.614.248-1.007.968-.88 1.609.129.64.73.96 1.344.713l2.222-.895 1.01-.407-1.01.407-2.222.895c-.614.247-1.008.967-.88 1.608.128.642.73.961 1.343.714l2.223-.895.889-.358-.89.358-2.222.895c-.614.247-1.007.967-.88 1.608.129.642.73.961 1.344.714l2.223-.895 2.223-.896 2.222-.895-.464-2.322-.889.358.89-.358-.464-2.322-1.01.407 1.01-.407-.464-2.321-.89.358.89-.359-.464-2.321-2.222.895-2.223.895-2.223.895c-.614.248-1.007.968-.88 1.609.129.641.73.96 1.344.713l2.223-.895.889-.358z" fill="#3D2B1A"/><path fill="#F6CD9B" d="M55.672 27.68l10.031 4.735-2.587-11.552z"/><path fill="#F6CD9B" d="M57.606 22.51L124.2 97.823l-35.356 4.964-40.399-63.683z"/><path fill="#3D2B1A" d="M68.623 54.137l47.119 60.315-28.593 12.225-37.446-65.123z"/><path fill="#C6A07A" d="M22.3 58.438l9.826 8.772-1.697-12.923z"/><path fill="#3D2B1A" d="M58.033 49.586l13.057-4.51-1.893 14.033z"/><path fill="#C6A07A" d="M28.32 61.692l7.88 75.221 29.943-5.421-21.015-72.05z"/><path d="M67.355 62.692c.47 1.521-.399 3.162-1.93 3.646l-26.923 8.52c-1.532.484-3.17-.363-3.64-1.884L16.11 12.329c-.47-1.52.398-3.161 1.93-3.646L44.963.164c1.532-.484 3.17.363 3.64 1.884l18.752 60.644z" fill="#000"/><path fill="#FFF" d="M48.422 5.837L17.846 15.09l16.735 53.313 30.576-9.251z"/><path d="M47.311 58.445l-13.28 4.02a.29.29 0 0 1-.357-.186l-6.295-20.053a.283.283 0 0 1 .188-.35l13.282-4.02a.29.29 0 0 1 .356.186L47.5 58.095a.283.283 0 0 1-.189.35" fill="#A97B2C"/><path d="M47.223 58.164l-13.281 4.019a.29.29 0 0 1-.357-.186L27.38 42.226a.283.283 0 0 1 .188-.35l13.281-4.02a.29.29 0 0 1 .357.186l6.207 19.771a.283.283 0 0 1-.189.35" fill="#D39C29"/><path d="M36.677 47.732c1.301-.394 2.68.323 3.081 1.601.401 1.277-.328 2.633-1.628 3.026-1.302.394-2.68-.323-3.083-1.601-.4-1.278.329-2.633 1.63-3.026" fill="#FFF"/><path d="M62.155 53.954l-13.281 4.019a.29.29 0 0 1-.357-.185l-6.294-20.054a.283.283 0 0 1 .188-.35l13.281-4.019a.29.29 0 0 1 .357.186l6.295 20.053a.285.285 0 0 1-.189.35" fill="#186D38"/><path d="M62.067 53.672l-13.281 4.02a.29.29 0 0 1-.357-.186l-6.207-19.772a.283.283 0 0 1 .189-.35l13.281-4.019a.29.29 0 0 1 .357.186l6.206 19.771a.286.286 0 0 1-.188.35" fill="#2C8F44"/><path d="M55.427 32.52l-13.281 4.02a.29.29 0 0 1-.357-.186l-6.294-20.053a.283.283 0 0 1 .188-.35l13.281-4.02a.29.29 0 0 1 .357.186l6.295 20.054a.283.283 0 0 1-.189.35" fill="#2D4F9F"/><path d="M55.339 32.24l-13.281 4.018a.29.29 0 0 1-.357-.185L35.494 16.3a.283.283 0 0 1 .189-.35l13.281-4.02a.29.29 0 0 1 .357.186l6.206 19.772a.282.282 0 0 1-.188.35" fill="#3369B1"/><path d="M40.583 37.012l-13.28 4.019a.29.29 0 0 1-.357-.185L20.65 20.792a.283.283 0 0 1 .188-.35l13.282-4.019a.29.29 0 0 1 .356.185l6.295 20.054a.28.28 0 0 1-.189.35" fill="#C4212C"/><path d="M40.495 36.73l-13.281 4.02a.29.29 0 0 1-.357-.186l-6.206-19.772a.283.283 0 0 1 .188-.35l13.281-4.019a.29.29 0 0 1 .357.185l6.207 19.772a.279.279 0 0 1-.189.35" fill="#DF1D3E"/><path fill="#FFF" d="M49.464 44.089l4.238-1.283 1.306 4.164-4.237 1.282zM33.65 30.122l-4.567 1.382.895-5.147m12.898-1.462l1.823-3.386 3.447 1.791-1.823 3.386z"/><path fill="#CBCACA" d="M19.263 19.603l30.576-9.251.084.268-30.576 9.251zm13.838 44.185l30.576-9.251.084.268-30.576 9.25z"/><path d="M63.731 58.724l-6.042 1.828c-.135.041-.286-.047-.332-.193l-.702-2.238c-.046-.146.029-.302.164-.342l6.042-1.828c.134-.042.286.046.332.192l.702 2.238c.043.152-.028.302-.164.343M50.256 64.71a2.302 2.302 0 0 0-1.514 2.873 2.28 2.28 0 0 0 2.87 1.491 2.302 2.302 0 0 0 1.513-2.873 2.28 2.28 0 0 0-2.869-1.49M25.507 10.305a.807.807 0 0 0-.53 1.006.805.805 0 0 0 1.534-.483.798.798 0 0 0-1.004-.523m4.491.161l6.4-2.018a.71.71 0 0 0 .467-.887.702.702 0 0 0-.885-.459l-6.4 2.019a.71.71 0 0 0-.467.885.703.703 0 0 0 .885.46" fill="#333"/><path d="M56.2 27.363l-7.483-5.548a4.663 4.663 0 0 1-.975-6.516 4.647 4.647 0 0 1 6.507-.968l1.95 13.032z" fill="#000" opacity=".15"/><path d="M49.259 15.447c1.506-2.076 4.406-2.49 6.479-.925l5.94 4.547-.001.003c.478.378.892.854 1.21 1.42 1.274 2.276.509 5.135-1.71 6.388-1.602.905-3.515.712-4.938-.312l-.014.019-5.942-4.548c-2.072-1.565-2.53-4.517-1.024-6.592" fill="#F6CD9B"/><path d="M64.973 49.505l-7.788-2.395a4.6 4.6 0 0 1 3.641-8.451l4.147 10.846z" fill="#000" opacity=".15"/><path d="M55.62 40.223c1.063-2.462 3.85-3.632 6.22-2.614l6.812 2.98-.002.004c.55.252 1.06.619 1.49 1.1 1.727 1.935 1.556 4.985-.382 6.813-1.4 1.32-3.331 1.628-4.95.979l-.01.022-6.812-2.98c-2.37-1.02-3.43-3.841-2.367-6.304" fill="#3D2B1A"/><path d="M30.956 58.251l2.453-7.147a4.597 4.597 0 0 0-2.057-6.177c-2.276-1.135-3.37-1.303-4.51.972l4.114 12.352z" fill="#000" opacity=".15"/><path d="M30.03 45.39a4.28 4.28 0 0 0-5.748 1.914l-3.005 6.121.003.002a4.289 4.289 0 0 0 3.692 6.112 4.262 4.262 0 0 0 3.953-2.283l.02.01 3.004-6.12a4.295 4.295 0 0 0-1.92-5.757" fill="#C6A07A"/></g></g></g></svg>